<?xml version="1.0" encoding="UTF-8" standalone="no"?>
<!DOCTYPE svg PUBLIC "-//W3C//DTD SVG 1.1//EN"
 "http://www.w3.org/Graphics/SVG/1.1/DTD/svg11.dtd">
<!-- Generated by graphviz version 2.26.3 (20100126.1600)
 -->
<!-- Title: G Pages: 1 -->
<svg width="517pt" height="1520pt"
 viewBox="0.00 0.00 517.00 1520.00" xmlns="http://www.w3.org/2000/svg" xmlns:xlink="http://www.w3.org/1999/xlink">
<g id="graph1" class="graph" transform="scale(1 1) rotate(0) translate(4 1516)">
<title>G</title>
<polygon fill="white" stroke="white" points="-4,5 -4,-1516 514,-1516 514,5 -4,5"/>
<g id="graph2" class="cluster"><title>cluster_Powerstack</title>
<polyline fill="none" stroke="gray" points="194,-8 489,-8 "/>
<path fill="none" stroke="gray" d="M489,-8C495,-8 501,-14 501,-20"/>
<polyline fill="none" stroke="gray" points="501,-20 501,-1492 "/>
<path fill="none" stroke="gray" d="M501,-1492C501,-1498 495,-1504 489,-1504"/>
<polyline fill="none" stroke="gray" points="489,-1504 194,-1504 "/>
<path fill="none" stroke="gray" d="M194,-1504C188,-1504 182,-1498 182,-1492"/>
<polyline fill="none" stroke="gray" points="182,-1492 182,-20 "/>
<path fill="none" stroke="gray" d="M182,-20C182,-14 188,-8 194,-8"/>
<text text-anchor="middle" x="341.5" y="-1490.1" font-family="Times Roman,serif" font-size="11.00" fill="gray">Powerstack</text>
</g>
<g id="graph3" class="cluster"><title>cluster_Powerstack\Core</title>
<polyline fill="none" stroke="gray" points="202,-644 476,-644 "/>
<path fill="none" stroke="gray" d="M476,-644C482,-644 488,-650 488,-656"/>
<polyline fill="none" stroke="gray" points="488,-656 488,-1462 "/>
<path fill="none" stroke="gray" d="M488,-1462C488,-1468 482,-1474 476,-1474"/>
<polyline fill="none" stroke="gray" points="476,-1474 202,-1474 "/>
<path fill="none" stroke="gray" d="M202,-1474C196,-1474 190,-1468 190,-1462"/>
<polyline fill="none" stroke="gray" points="190,-1462 190,-656 "/>
<path fill="none" stroke="gray" d="M190,-656C190,-650 196,-644 202,-644"/>
<text text-anchor="middle" x="339" y="-1460.1" font-family="Times Roman,serif" font-size="11.00" fill="gray">Core</text>
</g>
<g id="graph4" class="cluster"><title>cluster_Powerstack\Plugins</title>
<polyline fill="none" stroke="gray" points="347,-16 481,-16 "/>
<path fill="none" stroke="gray" d="M481,-16C487,-16 493,-22 493,-28"/>
<polyline fill="none" stroke="gray" points="493,-28 493,-624 "/>
<path fill="none" stroke="gray" d="M493,-624C493,-630 487,-636 481,-636"/>
<polyline fill="none" stroke="gray" points="481,-636 347,-636 "/>
<path fill="none" stroke="gray" d="M347,-636C341,-636 335,-630 335,-624"/>
<polyline fill="none" stroke="gray" points="335,-624 335,-28 "/>
<path fill="none" stroke="gray" d="M335,-28C335,-22 341,-16 347,-16"/>
<text text-anchor="middle" x="414" y="-622.1" font-family="Times Roman,serif" font-size="11.00" fill="gray">Plugins</text>
</g>
<g id="graph5" class="cluster"><title>cluster_Powerstack\Plugins\Analytics</title>
<polyline fill="none" stroke="gray" points="391,-532 437,-532 "/>
<path fill="none" stroke="gray" d="M437,-532C443,-532 449,-538 449,-544"/>
<polyline fill="none" stroke="gray" points="449,-544 449,-594 "/>
<path fill="none" stroke="gray" d="M449,-594C449,-600 443,-606 437,-606"/>
<polyline fill="none" stroke="gray" points="437,-606 391,-606 "/>
<path fill="none" stroke="gray" d="M391,-606C385,-606 379,-600 379,-594"/>
<polyline fill="none" stroke="gray" points="379,-594 379,-544 "/>
<path fill="none" stroke="gray" d="M379,-544C379,-538 385,-532 391,-532"/>
<text text-anchor="middle" x="414" y="-592.1" font-family="Times Roman,serif" font-size="11.00" fill="gray">Analytics</text>
</g>
<g id="graph6" class="cluster"><title>cluster_Powerstack\Plugins\Captcha</title>
<polyline fill="none" stroke="gray" points="379,-450 449,-450 "/>
<path fill="none" stroke="gray" d="M449,-450C455,-450 461,-456 461,-462"/>
<polyline fill="none" stroke="gray" points="461,-462 461,-512 "/>
<path fill="none" stroke="gray" d="M461,-512C461,-518 455,-524 449,-524"/>
<polyline fill="none" stroke="gray" points="449,-524 379,-524 "/>
<path fill="none" stroke="gray" d="M379,-524C373,-524 367,-518 367,-512"/>
<polyline fill="none" stroke="gray" points="367,-512 367,-462 "/>
<path fill="none" stroke="gray" d="M367,-462C367,-456 373,-450 379,-450"/>
<text text-anchor="middle" x="414" y="-510.1" font-family="Times Roman,serif" font-size="11.00" fill="gray">Captcha</text>
</g>
<g id="graph7" class="cluster"><title>cluster_Powerstack\Plugins\Session</title>
<polyline fill="none" stroke="gray" points="355,-368 473,-368 "/>
<path fill="none" stroke="gray" d="M473,-368C479,-368 485,-374 485,-380"/>
<polyline fill="none" stroke="gray" points="485,-380 485,-430 "/>
<path fill="none" stroke="gray" d="M485,-430C485,-436 479,-442 473,-442"/>
<polyline fill="none" stroke="gray" points="473,-442 355,-442 "/>
<path fill="none" stroke="gray" d="M355,-442C349,-442 343,-436 343,-430"/>
<polyline fill="none" stroke="gray" points="343,-430 343,-380 "/>
<path fill="none" stroke="gray" d="M343,-380C343,-374 349,-368 355,-368"/>
<text text-anchor="middle" x="414" y="-428.1" font-family="Times Roman,serif" font-size="11.00" fill="gray">Session</text>
</g>
<g id="graph8" class="cluster"><title>cluster_Powerstack\Plugins\Template</title>
<polyline fill="none" stroke="gray" points="369,-286 459,-286 "/>
<path fill="none" stroke="gray" d="M459,-286C465,-286 471,-292 471,-298"/>
<polyline fill="none" stroke="gray" points="471,-298 471,-348 "/>
<path fill="none" stroke="gray" d="M471,-348C471,-354 465,-360 459,-360"/>
<polyline fill="none" stroke="gray" points="459,-360 369,-360 "/>
<path fill="none" stroke="gray" d="M369,-360C363,-360 357,-354 357,-348"/>
<polyline fill="none" stroke="gray" points="357,-348 357,-298 "/>
<path fill="none" stroke="gray" d="M357,-298C357,-292 363,-286 369,-286"/>
<text text-anchor="middle" x="414" y="-346.1" font-family="Times Roman,serif" font-size="11.00" fill="gray">Template</text>
</g>
<!-- \\Powerstack\\Core\\Application -->
<g id="node3" class="node"><title>\\Powerstack\\Core\\Application</title>
<a xlink:href="lib.powerstack.core.application.html" xlink:title="Application" target="_parent">
<polygon fill="none" stroke="black" points="459,-1444 369,-1444 369,-1408 459,-1408 459,-1444"/>
<text text-anchor="middle" x="414" y="-1423.1" font-family="Courier,monospace" font-size="11.00">Application</text>
</a>
</g>
<!-- \\Powerstack\\Core\\Filesystem -->
<g id="node4" class="node"><title>\\Powerstack\\Core\\Filesystem</title>
<a xlink:href="lib.powerstack.core.filesystem.html" xlink:title="Filesystem" target="_parent">
<polygon fill="none" stroke="black" points="456,-1390 372,-1390 372,-1354 456,-1354 456,-1390"/>
<text text-anchor="middle" x="414" y="-1369.1" font-family="Courier,monospace" font-size="11.00">Filesystem</text>
</a>
</g>
<!-- \\Powerstack\\Core\\TemplateFactory -->
<g id="node5" class="node"><title>\\Powerstack\\Core\\TemplateFactory</title>
<a xlink:href="lib.powerstack.core.templatefactory.html" xlink:title="TemplateFactory" target="_parent">
<polygon fill="none" stroke="black" points="473,-1336 355,-1336 355,-1300 473,-1300 473,-1336"/>
<text text-anchor="middle" x="414" y="-1315.1" font-family="Courier,monospace" font-size="11.00">TemplateFactory</text>
</a>
</g>
<!-- \\Powerstack\\Core\\Exception -->
<g id="node6" class="node"><title>\\Powerstack\\Core\\Exception</title>
<a xlink:href="lib.powerstack.core.exception.html" xlink:title="Exception" target="_parent">
<polygon fill="none" stroke="black" points="275,-850 199,-850 199,-814 275,-814 275,-850"/>
<text text-anchor="middle" x="237" y="-829.1" font-family="Courier,monospace" font-size="11.00">Exception</text>
</a>
</g>
<!-- \\Exception -->
<g id="node39" class="node"><title>\\Exception</title>
<ellipse fill="none" stroke="black" cx="63" cy="-832" rx="62.9325" ry="18.3848"/>
<text text-anchor="middle" x="63" y="-828.4" font-family="Times Roman,serif" font-size="14.00" fill="gray">\Exception</text>
</g>
<!-- \\Powerstack\\Core\\Exception&#45;&gt;\\Exception -->
<g id="edge14" class="edge"><title>\\Powerstack\\Core\\Exception&#45;&gt;\\Exception</title>
<path fill="none" stroke="black" d="M198.384,-832C180.06,-832 157.538,-832 136.16,-832"/>
<polygon fill="none" stroke="black" points="136.11,-828.5 126.11,-832 136.11,-835.5 136.11,-828.5"/>
</g>
<!-- \\Powerstack\\Core\\Cookie -->
<g id="node7" class="node"><title>\\Powerstack\\Core\\Cookie</title>
<a xlink:href="lib.powerstack.core.cookie.html" xlink:title="Cookie" target="_parent">
<polygon fill="none" stroke="black" points="442,-1282 386,-1282 386,-1246 442,-1246 442,-1282"/>
<text text-anchor="middle" x="414" y="-1261.1" font-family="Courier,monospace" font-size="11.00">Cookie</text>
</a>
</g>
<!-- \\Powerstack\\Core\\SessionSimple -->
<g id="node8" class="node"><title>\\Powerstack\\Core\\SessionSimple</title>
<a xlink:href="lib.powerstack.core.sessionsimple.html" xlink:title="SessionSimple" target="_parent">
<polygon fill="none" stroke="black" points="466,-1228 362,-1228 362,-1192 466,-1192 466,-1228"/>
<text text-anchor="middle" x="414" y="-1207.1" font-family="Courier,monospace" font-size="11.00">SessionSimple</text>
</a>
</g>
<!-- \\Powerstack\\Core\\Config -->
<g id="node9" class="node"><title>\\Powerstack\\Core\\Config</title>
<a xlink:href="lib.powerstack.core.config.html" xlink:title="Config" target="_parent">
<polygon fill="none" stroke="black" points="442,-1174 386,-1174 386,-1138 442,-1138 442,-1174"/>
<text text-anchor="middle" x="414" y="-1153.1" font-family="Courier,monospace" font-size="11.00">Config</text>
</a>
</g>
<!-- \\Powerstack\\Core\\Hooks -->
<g id="node10" class="node"><title>\\Powerstack\\Core\\Hooks</title>
<a xlink:href="lib.powerstack.core.hooks.html" xlink:title="Hooks" target="_parent">
<polygon fill="none" stroke="black" points="441,-1120 387,-1120 387,-1084 441,-1084 441,-1120"/>
<text text-anchor="middle" x="414" y="-1099.1" font-family="Courier,monospace" font-size="11.00">Hooks</text>
</a>
</g>
<!-- \\Powerstack\\Core\\Params -->
<g id="node11" class="node"><title>\\Powerstack\\Core\\Params</title>
<a xlink:href="lib.powerstack.core.params.html" xlink:title="Params" target="_parent">
<polygon fill="none" stroke="black" points="442,-1066 386,-1066 386,-1030 442,-1030 442,-1066"/>
<text text-anchor="middle" x="414" y="-1045.1" font-family="Courier,monospace" font-size="11.00">Params</text>
</a>
</g>
<!-- \\Powerstack\\Core\\ExceptionHandler -->
<g id="node12" class="node"><title>\\Powerstack\\Core\\ExceptionHandler</title>
<a xlink:href="lib.powerstack.core.exceptionhandler.html" xlink:title="ExceptionHandler" target="_parent">
<polygon fill="none" stroke="black" points="476,-1012 352,-1012 352,-976 476,-976 476,-1012"/>
<text text-anchor="middle" x="414" y="-991.1" font-family="Courier,monospace" font-size="11.00">ExceptionHandler</text>
</a>
</g>
<!-- \\Powerstack\\Core\\TemplateSimple -->
<g id="node13" class="node"><title>\\Powerstack\\Core\\TemplateSimple</title>
<a xlink:href="lib.powerstack.core.templatesimple.html" xlink:title="TemplateSimple" target="_parent">
<polygon fill="none" stroke="black" points="469,-958 359,-958 359,-922 469,-922 469,-958"/>
<text text-anchor="middle" x="414" y="-937.1" font-family="Courier,monospace" font-size="11.00">TemplateSimple</text>
</a>
</g>
<!-- \\Powerstack\\Core\\Registry -->
<g id="node14" class="node"><title>\\Powerstack\\Core\\Registry</title>
<a xlink:href="lib.powerstack.core.registry.html" xlink:title="Registry" target="_parent">
<polygon fill="none" stroke="black" points="449,-904 379,-904 379,-868 449,-868 449,-904"/>
<text text-anchor="middle" x="414" y="-883.1" font-family="Courier,monospace" font-size="11.00">Registry</text>
</a>
</g>
<!-- \\Powerstack\\Core\\NotFoundException -->
<g id="node15" class="node"><title>\\Powerstack\\Core\\NotFoundException</title>
<a xlink:href="lib.powerstack.core.notfoundexception.html" xlink:title="NotFoundException" target="_parent">
<polygon fill="none" stroke="black" points="479,-850 349,-850 349,-814 479,-814 479,-850"/>
<text text-anchor="middle" x="414" y="-829.1" font-family="Courier,monospace" font-size="11.00">NotFoundException</text>
</a>
</g>
<!-- \\Powerstack\\Core\\NotFoundException&#45;&gt;\\Powerstack\\Core\\Exception -->
<g id="edge16" class="edge"><title>\\Powerstack\\Core\\NotFoundException&#45;&gt;\\Powerstack\\Core\\Exception</title>
<path fill="none" stroke="black" d="M348.343,-832C327.578,-832 305.011,-832 285.657,-832"/>
<polygon fill="none" stroke="black" points="285.563,-828.5 275.563,-832 285.563,-835.5 285.563,-828.5"/>
</g>
<!-- \\Powerstack\\Core\\Request -->
<g id="node16" class="node"><title>\\Powerstack\\Core\\Request</title>
<a xlink:href="lib.powerstack.core.request.html" xlink:title="Request" target="_parent">
<polygon fill="none" stroke="black" points="446,-796 382,-796 382,-760 446,-760 446,-796"/>
<text text-anchor="middle" x="414" y="-775.1" font-family="Courier,monospace" font-size="11.00">Request</text>
</a>
</g>
<!-- \\Powerstack\\Core\\ErrorHandler -->
<g id="node17" class="node"><title>\\Powerstack\\Core\\ErrorHandler</title>
<a xlink:href="lib.powerstack.core.errorhandler.html" xlink:title="ErrorHandler" target="_parent">
<polygon fill="none" stroke="black" points="463,-742 365,-742 365,-706 463,-706 463,-742"/>
<text text-anchor="middle" x="414" y="-721.1" font-family="Courier,monospace" font-size="11.00">ErrorHandler</text>
</a>
</g>
<!-- \\Powerstack\\Core\\SessionFactory -->
<g id="node18" class="node"><title>\\Powerstack\\Core\\SessionFactory</title>
<a xlink:href="lib.powerstack.core.sessionfactory.html" xlink:title="SessionFactory" target="_parent">
<polygon fill="none" stroke="black" points="469,-688 359,-688 359,-652 469,-652 469,-688"/>
<text text-anchor="middle" x="414" y="-667.1" font-family="Courier,monospace" font-size="11.00">SessionFactory</text>
</a>
</g>
<!-- \\Powerstack\\Plugins\\Analytics\\Piwik -->
<g id="node21" class="node"><title>\\Powerstack\\Plugins\\Analytics\\Piwik</title>
<a xlink:href="lib.powerstack.plugins.analytics.piwik.html" xlink:title="Piwik" target="_parent">
<polygon fill="none" stroke="black" points="441,-576 387,-576 387,-540 441,-540 441,-576"/>
<text text-anchor="middle" x="414" y="-555.1" font-family="Courier,monospace" font-size="11.00">Piwik</text>
</a>
</g>
<!-- \\Powerstack\\Plugins\\Captcha\\Recaptcha -->
<g id="node23" class="node"><title>\\Powerstack\\Plugins\\Captcha\\Recaptcha</title>
<a xlink:href="lib.powerstack.plugins.captcha.recaptcha.html" xlink:title="Recaptcha" target="_parent">
<polygon fill="none" stroke="black" points="452,-494 376,-494 376,-458 452,-458 452,-494"/>
<text text-anchor="middle" x="414" y="-473.1" font-family="Courier,monospace" font-size="11.00">Recaptcha</text>
</a>
</g>
<!-- \\Powerstack\\Plugins\\Session\\SessionMemcached -->
<g id="node25" class="node"><title>\\Powerstack\\Plugins\\Session\\SessionMemcached</title>
<a xlink:href="lib.powerstack.plugins.session.sessionmemcached.html" xlink:title="SessionMemcached" target="_parent">
<polygon fill="none" stroke="black" points="476,-412 352,-412 352,-376 476,-376 476,-412"/>
<text text-anchor="middle" x="414" y="-391.1" font-family="Courier,monospace" font-size="11.00">SessionMemcached</text>
</a>
</g>
<!-- \\Powerstack\\Plugins\\Template\\TemplateTwig -->
<g id="node27" class="node"><title>\\Powerstack\\Plugins\\Template\\TemplateTwig</title>
<a xlink:href="lib.powerstack.plugins.template.templatetwig.html" xlink:title="TemplateTwig" target="_parent">
<polygon fill="none" stroke="black" points="463,-330 365,-330 365,-294 463,-294 463,-330"/>
<text text-anchor="middle" x="414" y="-309.1" font-family="Courier,monospace" font-size="11.00">TemplateTwig</text>
</a>
</g>
<!-- \\Powerstack\\Plugins\\Database -->
<g id="node28" class="node"><title>\\Powerstack\\Plugins\\Database</title>
<a xlink:href="lib.powerstack.plugins.database.html" xlink:title="Database" target="_parent">
<polygon fill="none" stroke="black" points="449,-276 379,-276 379,-240 449,-240 449,-276"/>
<text text-anchor="middle" x="414" y="-255.1" font-family="Courier,monospace" font-size="11.00">Database</text>
</a>
</g>
<!-- \\Powerstack\\Plugins\\Memcached -->
<g id="node29" class="node"><title>\\Powerstack\\Plugins\\Memcached</title>
<a xlink:href="lib.powerstack.plugins.memcached.html" xlink:title="Memcached" target="_parent">
<polygon fill="none" stroke="black" points="452,-222 376,-222 376,-186 452,-186 452,-222"/>
<text text-anchor="middle" x="414" y="-201.1" font-family="Courier,monospace" font-size="11.00">Memcached</text>
</a>
</g>
<!-- \\Powerstack\\Plugins\\Authentication -->
<g id="node30" class="node"><title>\\Powerstack\\Plugins\\Authentication</title>
<a xlink:href="lib.powerstack.plugins.authentication.html" xlink:title="Authentication" target="_parent">
<polygon fill="none" stroke="black" points="469,-168 359,-168 359,-132 469,-132 469,-168"/>
<text text-anchor="middle" x="414" y="-147.1" font-family="Courier,monospace" font-size="11.00">Authentication</text>
</a>
</g>
<!-- \\Powerstack\\Plugins\\Cron -->
<g id="node31" class="node"><title>\\Powerstack\\Plugins\\Cron</title>
<a xlink:href="lib.powerstack.plugins.cron.html" xlink:title="Cron" target="_parent">
<polygon fill="none" stroke="black" points="441,-114 387,-114 387,-78 441,-78 441,-114"/>
<text text-anchor="middle" x="414" y="-93.1" font-family="Courier,monospace" font-size="11.00">Cron</text>
</a>
</g>
<!-- \\Powerstack\\Plugins\\Model -->
<g id="node32" class="node"><title>\\Powerstack\\Plugins\\Model</title>
<a xlink:href="lib.powerstack.plugins.model.html" xlink:title="Model" target="_parent">
<polygon fill="none" stroke="black" points="441,-60 387,-60 387,-24 441,-24 441,-60"/>
<text text-anchor="middle" x="414" y="-39.1" font-family="Courier,monospace" font-size="11.00">Model</text>
</a>
</g>
</g>
</svg>
